<?xml version="1.0" standalone="no"?>
<!DOCTYPE svg PUBLIC "-//W3C//DTD SVG 20010904//EN"
 "http://www.w3.org/TR/2001/REC-SVG-20010904/DTD/svg10.dtd">
<svg version="1.0" xmlns="http://www.w3.org/2000/svg"
 width="500.000000pt" height="500.000000pt" viewBox="0 0 500.000000 500.000000"
 preserveAspectRatio="xMidYMid meet">
<metadata>
Created by potrace 1.14, written by Peter Selinger 2001-2017
</metadata>
<g transform="translate(0.000000,500.000000) scale(0.100000,-0.100000)"
fill="#000000" stroke="none">
<path d="M3999 4049 c-140 -22 -238 -139 -239 -284 0 -91 29 -154 98 -217 122
-109 301 -97 411 28 125 143 76 371 -96 446 -69 30 -112 37 -174 27z"/>
<path d="M672 2698 c5 -535 4 -534 74 -676 47 -97 113 -161 216 -211 130 -64
273 -91 478 -91 358 0 586 97 690 292 70 132 73 153 79 654 l6 451 234 -305
c212 -276 233 -307 222 -325 -7 -11 -141 -176 -297 -368 -156 -191 -284 -350
-284 -353 0 -3 132 -6 294 -6 l295 0 151 195 c83 107 155 195 158 195 4 0 75
-88 157 -194 l150 -195 498 0 497 -1 0 710 0 710 -529 0 -529 0 -118 -160
c-66 -87 -121 -159 -124 -160 -3 0 -59 72 -125 160 l-119 160 -513 0 -513 0 0
-327 c-1 -181 -5 -373 -10 -429 -15 -169 -61 -252 -157 -285 -52 -18 -189 -16
-233 3 -138 59 -160 156 -160 721 l0 317 -246 0 -245 0 3 -482z m3116 -484
l-3 -318 -247 303 -247 303 100 132 c56 72 167 217 248 322 l146 191 3 -308
c1 -169 1 -450 0 -625z"/>
</g>
</svg>
